<?xml version="1.0" encoding="UTF-8"?>
<svg width="151px" height="36px" viewBox="0 0 151 36" version="1.1" xmlns="http://www.w3.org/2000/svg" xmlns:xlink="http://www.w3.org/1999/xlink">
    <!-- Generator: Sketch 51.2 (57519) - http://www.bohemiancoding.com/sketch -->
    <title>logo</title>
    <desc>Created with Sketch.</desc>
    <defs></defs>
    <g id="Page-1" stroke="none" stroke-width="1" fill="none" fill-rule="evenodd">
        <g id="logo">
            <path d="M17.712,3.32 L17.712,5.48 L10.26,5.48 L10.26,26 L7.668,26 L7.668,5.48 L0.36,5.48 L0.36,3.32 L17.712,3.32 Z M32.2,17.72 L20.104,17.72 L20.104,18.044 C20.104,20.03601 20.6439946,21.5839945 21.724,22.688 C22.8040054,23.7920055 24.2799906,24.344 26.152,24.344 C26.9920042,24.344 27.7719964,24.2780007 28.492,24.146 C29.2120036,24.0139993 29.9559962,23.7920016 30.724,23.48 L31.264,25.352 C30.5919966,25.6400014 29.8060045,25.8739991 28.906,26.054 C28.0059955,26.2340009 27.052005,26.324 26.044,26.324 C24.8679941,26.324 23.7640052,26.1560017 22.732,25.82 C21.6999948,25.4839983 20.7940039,24.9620035 20.014,24.254 C19.2339961,23.5459965 18.6160023,22.6400055 18.16,21.536 C17.7039977,20.4319945 17.476,19.1120077 17.476,17.576 C17.476,16.2559934 17.6679981,15.0560054 18.052,13.976 C18.4360019,12.8959946 18.9699966,11.9780038 19.654,11.222 C20.3380034,10.4659962 21.1659951,9.88400204 22.138,9.476 C23.1100049,9.06799796 24.195994,8.864 25.396,8.864 C26.4280052,8.864 27.3579959,9.03799826 28.186,9.386 C29.0140041,9.73400174 29.727997,10.2319968 30.328,10.88 C30.928003,11.5280032 31.3899984,12.3079954 31.714,13.22 C32.0380016,14.1320046 32.2,15.1399945 32.2,16.244 L32.2,17.72 Z M29.608,15.848 C29.608,15.1759966 29.5240008,14.5340031 29.356,13.922 C29.1879992,13.3099969 28.9300017,12.7700023 28.582,12.302 C28.2339983,11.8339977 27.7840028,11.4620014 27.232,11.186 C26.6799972,10.9099986 26.0200038,10.772 25.252,10.772 C23.859993,10.772 22.7140045,11.2279954 21.814,12.14 C20.9139955,13.0520046 20.368001,14.2999921 20.176,15.884 L29.608,15.848 Z M36.34,26 L36.34,0.44 L38.824,0.44 L38.824,26 L36.34,26 Z M57.724,17.72 L45.628,17.72 L45.628,18.044 C45.628,20.03601 46.1679946,21.5839945 47.248,22.688 C48.3280054,23.7920055 49.8039906,24.344 51.676,24.344 C52.5160042,24.344 53.2959964,24.2780007 54.016,24.146 C54.7360036,24.0139993 55.4799962,23.7920016 56.248,23.48 L56.788,25.352 C56.1159966,25.6400014 55.3300045,25.8739991 54.43,26.054 C53.5299955,26.2340009 52.576005,26.324 51.568,26.324 C50.3919941,26.324 49.2880052,26.1560017 48.256,25.82 C47.2239948,25.4839983 46.3180039,24.9620035 45.538,24.254 C44.7579961,23.5459965 44.1400023,22.6400055 43.684,21.536 C43.2279977,20.4319945 43,19.1120077 43,17.576 C43,16.2559934 43.1919981,15.0560054 43.576,13.976 C43.9600019,12.8959946 44.4939966,11.9780038 45.178,11.222 C45.8620034,10.4659962 46.6899951,9.88400204 47.662,9.476 C48.6340049,9.06799796 49.719994,8.864 50.92,8.864 C51.9520052,8.864 52.8819959,9.03799826 53.71,9.386 C54.5380041,9.73400174 55.251997,10.2319968 55.852,10.88 C56.452003,11.5280032 56.9139984,12.3079954 57.238,13.22 C57.5620016,14.1320046 57.724,15.1399945 57.724,16.244 L57.724,17.72 Z M55.132,15.848 C55.132,15.1759966 55.0480008,14.5340031 54.88,13.922 C54.7119992,13.3099969 54.4540017,12.7700023 54.106,12.302 C53.7579983,11.8339977 53.3080028,11.4620014 52.756,11.186 C52.2039972,10.9099986 51.5440038,10.772 50.776,10.772 C49.383993,10.772 48.2380045,11.2279954 47.338,12.14 C46.4379955,13.0520046 45.892001,14.2999921 45.7,15.884 L55.132,15.848 Z" id="TelePysch-Copy" fill="#2E4CA6"></path>
            <path d="M63.612,3.32 L71.568,3.32 C72.8880066,3.32 74.0819947,3.47599844 75.15,3.788 C76.2180053,4.10000156 77.1299962,4.555997 77.886,5.156 C78.6420038,5.756003 79.223998,6.48199574 79.632,7.334 C80.040002,8.18600426 80.244,9.16399448 80.244,10.268 C80.244,11.5640065 80.0040024,12.6799953 79.524,13.616 C79.0439976,14.5520047 78.3900041,15.3259969 77.562,15.938 C76.7339959,16.5500031 75.7680055,17.0059985 74.664,17.306 C73.5599945,17.6060015 72.3840062,17.756 71.136,17.756 L68.544,17.756 L68.544,26 L63.612,26 L63.612,3.32 Z M68.544,13.976 L70.56,13.976 C71.1840031,13.976 71.7779972,13.9220005 72.342,13.814 C72.9060028,13.7059995 73.3979979,13.5140014 73.818,13.238 C74.2380021,12.9619986 74.5679988,12.6020022 74.808,12.158 C75.0480012,11.7139978 75.168,11.1560034 75.168,10.484 C75.168,9.30799412 74.772004,8.44400276 73.98,7.892 C73.187996,7.33999724 72.1800061,7.064 70.956,7.064 L68.544,7.064 L68.544,13.976 Z M81.54,8.828 L86.76,8.828 L89.82,17 L90.972,21.176 L91.116,21.176 L92.232,16.964 L94.896,8.828 L99.792,8.828 L93.492,26.612 C93.1319982,27.5960049 92.7300022,28.5379955 92.286,29.438 C91.8419978,30.3380045 91.3020032,31.1719962 90.666,31.94 C90.0299968,32.7080038 89.2800043,33.391997 88.416,33.992 C87.5519957,34.592003 86.5320059,35.0839981 85.356,35.468 L83.376,31.76 C84.7200067,31.2799976 85.8479954,30.5840046 86.76,29.672 C87.6720046,28.7599954 88.2959983,27.6680064 88.632,26.396 L88.776,25.928 L81.54,8.828 Z M112.536,12.932 C111.119993,12.2599966 109.752007,11.924 108.432,11.924 C107.663996,11.924 107.070002,12.0559987 106.65,12.32 C106.229998,12.5840013 106.02,12.9439977 106.02,13.4 C106.02,13.8560023 106.205998,14.2279986 106.578,14.516 C106.950002,14.8040014 107.699994,15.1159983 108.828,15.452 L109.908,15.776 C111.396007,16.2080022 112.523996,16.8319959 113.292,17.648 C114.060004,18.4640041 114.444,19.5199935 114.444,20.816 C114.444,22.5200085 113.790007,23.875995 112.482,24.884 C111.173993,25.892005 109.404011,26.396 107.172,26.396 C104.891989,26.396 102.936008,25.9880041 101.304,25.172 L102.384,21.644 C103.080003,22.0040018 103.811996,22.2979989 104.58,22.526 C105.348004,22.7540011 106.127996,22.868 106.92,22.868 C107.880005,22.868 108.581998,22.7180015 109.026,22.418 C109.470002,22.1179985 109.692,21.7280024 109.692,21.248 C109.692,20.7439975 109.476002,20.3540014 109.044,20.078 C108.611998,19.8019986 107.796006,19.4960017 106.596,19.16 L105.48,18.836 C104.039993,18.3559976 102.984003,17.720004 102.312,16.928 C101.639997,16.135996 101.304,15.0800066 101.304,13.76 C101.304,12.1999922 101.891994,10.9280049 103.068,9.944 C104.244006,8.95999508 105.887989,8.468 108,8.468 C110.08801,8.468 111.935992,8.83999628 113.544,9.584 L112.536,12.932 Z M126.828,22.868 C127.596004,22.868 128.273997,22.766001 128.862,22.562 C129.450003,22.357999 129.935998,22.160001 130.32,21.968 L131.22,25.28 C130.739998,25.5440013 130.044005,25.7959988 129.132,26.036 C128.219995,26.2760012 127.224005,26.396 126.144,26.396 C124.847994,26.396 123.636006,26.2040019 122.508,25.82 C121.379994,25.4359981 120.402004,24.8660038 119.574,24.11 C118.745996,23.3539962 118.092002,22.4240055 117.612,21.32 C117.131998,20.2159945 116.892,18.9320073 116.892,17.468 C116.892,16.1239933 117.119998,14.9000055 117.576,13.796 C118.032002,12.6919945 118.667996,11.744004 119.484,10.952 C120.300004,10.159996 121.283994,9.54800216 122.436,9.116 C123.588006,8.68399784 124.847993,8.468 126.216,8.468 C126.960004,8.468 127.745996,8.53999928 128.574,8.684 C129.402004,8.82800072 130.271995,9.1399976 131.184,9.62 L130.176,12.932 C129.671997,12.6439986 129.126003,12.4100009 128.538,12.23 C127.949997,12.0499991 127.356003,11.96 126.756,11.96 C125.267993,11.96 124.062005,12.4159954 123.138,13.328 C122.213995,14.2400046 121.752,15.5719912 121.752,17.324 C121.752,18.3560052 121.901999,19.2259965 122.202,19.934 C122.502002,20.6420035 122.891998,21.2119978 123.372,21.644 C123.852002,22.0760022 124.391997,22.387999 124.992,22.58 C125.592003,22.772001 126.203997,22.868 126.828,22.868 Z M139.284,26 L134.496,26 L134.496,0.296 L139.284,0.296 L139.284,10.376 C139.980003,9.82399724 140.777995,9.3680018 141.678,9.008 C142.578005,8.6479982 143.555995,8.468 144.612,8.468 C145.620005,8.468 146.501996,8.6179985 147.258,8.918 C148.014004,9.2180015 148.637998,9.6379973 149.13,10.178 C149.622002,10.7180027 149.987999,11.3659962 150.228,12.122 C150.468001,12.8780038 150.588,13.6999956 150.588,14.588 L150.588,26 L145.8,26 L145.8,15.416 C145.8,14.2399941 145.560002,13.4000025 145.08,12.896 C144.599998,12.3919975 143.904005,12.14 142.992,12.14 C142.367997,12.14 141.726003,12.2899985 141.066,12.59 C140.405997,12.8900015 139.812003,13.2919975 139.284,13.796 L139.284,26 Z" id="TelePysch-Copy-2" fill="#676A73"></path>
        </g>
    </g>
</svg>